<svg xmlns="http://www.w3.org/2000/svg" width="19" height="34" fill="none" style=""><rect id="backgroundrect" width="100%" height="100%" x="0" y="0" fill="none" stroke="none"/>

<g class="currentLayer" style=""><title>Layer 1</title><path fill-rule="evenodd" clip-rule="evenodd" d="M0.36079 0.360554C-0.120265 0.84161 -0.120266 1.62156 0.36079 2.10261L15.2483 16.9901L0.360794 31.8776C-0.120262 32.3587 -0.120262 33.1386 0.360794 33.6197C0.841849 34.1007 1.62179 34.1007 2.10285 33.6197L17.7813 17.9412C18.0422 17.6803 18.1616 17.3315 18.1396 16.9901C18.1616 16.6487 18.0422 16.2999 17.7813 16.0391L2.10285 0.360554C1.62179 -0.120503 0.841846 -0.120499 0.36079 0.360554Z" fill="#000000" id="svg_1" class="" fill-opacity="1" transform="rotate(-179.98626708984375 9.071083068847654,16.990106582641598) "/><path fill-rule="evenodd" clip-rule="evenodd" d="M0.36079,0.36055400000000004 C-0.12026500000000002,0.8416100000000001 -0.12026600000000003,1.6215600000000001 0.36079,2.10261 L15.2483,16.990099999999998 L0.360794,31.8776 C-0.12026200000000002,32.3587 -0.12026200000000002,33.1386 0.360794,33.6197 C0.8418490000000002,34.1007 1.6217900000000003,34.1007 2.10285,33.6197 L17.7813,17.9412 C18.0422,17.6803 18.1616,17.3315 18.1396,16.990099999999998 C18.1616,16.6487 18.0422,16.2999 17.7813,16.0391 L2.10285,0.36055400000000004 C1.6217900000000003,-0.12050300000000001 0.8418460000000001,-0.12049900000000001 0.36079,0.36055400000000004 z" fill="#000000" class="" fill-opacity="1" transform="rotate(-179.98626708984375 9.071083068847654,16.990106582641598) " id="svg_2"/></g></svg>