<svg width="24" height="16" viewBox="0 0 24 16" fill="none" xmlns="http://www.w3.org/2000/svg">
<g clip-path="url(#clip0_2325_63)">
<path d="M3.33792 4.66644C3.33792 3.94124 3.543 3.23233 3.92722 2.62935C4.31144 2.02637 4.85755 1.5564 5.49649 1.27888C6.13542 1.00136 6.83849 0.928747 7.51678 1.07023C8.19507 1.21171 8.81812 1.56092 9.30714 2.07371C9.79616 2.58651 10.1292 3.23984 10.2641 3.95111C10.399 4.66237 10.3298 5.39962 10.0651 6.06961C9.80047 6.73961 9.35229 7.31226 8.77727 7.71516C8.20224 8.11806 7.52619 8.33311 6.83461 8.33311C7.58074 8.33507 8.32158 8.46454 9.02799 8.71644C9.88314 8.20851 10.5539 7.41803 10.9356 6.46835C11.3173 5.51867 11.3885 4.46321 11.138 3.46666C10.8875 2.4701 10.3295 1.58852 9.55106 0.959461C8.77258 0.330402 7.81742 -0.0107422 6.83461 -0.0107422C5.85181 -0.0107422 4.89664 0.330402 4.11816 0.959461C3.33968 1.58852 2.78168 2.4701 2.53122 3.46666C2.28076 4.46321 2.35193 5.51867 2.73363 6.46835C3.11533 7.41803 3.78608 8.20851 4.64123 8.71644C5.34764 8.46454 6.08848 8.33507 6.83461 8.33311C5.90723 8.33311 5.01783 7.9468 4.36208 7.25916C3.70632 6.57153 3.33792 5.6389 3.33792 4.66644V4.66644Z" fill="#464646"/>
<path d="M0 15.4996C0 15.6323 0.0502364 15.7594 0.139658 15.8532C0.229079 15.947 0.35036 15.9996 0.476821 15.9996C0.603282 15.9996 0.724563 15.947 0.813985 15.8532C0.903406 15.7594 0.953642 15.6323 0.953642 15.4996C0.955745 13.8648 1.576 12.2976 2.67841 11.1416C3.78082 9.98559 5.2754 9.33518 6.83444 9.33298C6.06412 9.33484 5.30717 9.12202 4.64106 8.71631C3.29059 9.2001 2.11768 10.1136 1.28577 11.3295C0.453864 12.5454 0.0043954 14.0032 0 15.4996H0Z" fill="#464646"/>
<path d="M11.5868 11.3746C11.7139 11.183 11.8729 11.008 12.0159 10.833C11.2157 9.86298 10.1847 9.13264 9.02785 8.71631C8.36174 9.12202 7.60479 9.33484 6.83447 9.33298C8.39351 9.33518 9.88809 9.98559 10.9905 11.1416C12.0929 12.2976 12.7132 13.8648 12.7153 15.4996C12.7153 15.6323 12.7655 15.7594 12.8549 15.8532C12.9443 15.947 13.0656 15.9996 13.1921 15.9996C13.3185 15.9996 13.4398 15.947 13.5293 15.8532C13.6187 15.7594 13.6689 15.6323 13.6689 15.4996C13.6666 14.1396 13.2915 12.809 12.5881 11.6663C12.5086 11.783 12.4133 11.8913 12.3338 12.008C12.1191 11.7559 11.8668 11.542 11.5868 11.3746Z" fill="#464646"/>
<path d="M6.83449 8.33301C6.08836 8.33497 5.34752 8.46444 4.64111 8.71634C5.30798 9.12008 6.06445 9.33262 6.83449 9.33262C7.60453 9.33262 8.361 9.12008 9.02787 8.71634C8.32146 8.46444 7.58062 8.33497 6.83449 8.33301V8.33301Z" fill="#464646"/>
<path d="M13.669 4.66644C13.669 3.94124 13.8741 3.23233 14.2583 2.62935C14.6425 2.02637 15.1886 1.5564 15.8275 1.27888C16.4665 1.00136 17.1695 0.928747 17.8478 1.07023C18.5261 1.21171 19.1492 1.56092 19.6382 2.07371C20.1272 2.58651 20.4602 3.23984 20.5952 3.95111C20.7301 4.66237 20.6608 5.39962 20.3962 6.06961C20.1315 6.73961 19.6834 7.31226 19.1083 7.71516C18.5333 8.11806 17.8572 8.33311 17.1657 8.33311C17.9118 8.33507 18.6526 8.46454 19.359 8.71644C20.2142 8.20851 20.8849 7.41803 21.2666 6.46835C21.6483 5.51867 21.7195 4.46321 21.4691 3.46666C21.2186 2.4701 20.6606 1.58852 19.8821 0.959461C19.1036 0.330402 18.1485 -0.0107422 17.1657 -0.0107422C16.1829 -0.0107422 15.2277 0.330402 14.4492 0.959461C13.6707 1.58852 13.1127 2.4701 12.8623 3.46666C12.6118 4.46321 12.683 5.51867 13.0647 6.46835C13.4464 7.41803 14.1171 8.20851 14.9723 8.71644C15.6787 8.46454 16.4195 8.33507 17.1657 8.33311C16.2383 8.33311 15.3489 7.9468 14.6931 7.25916C14.0374 6.57153 13.669 5.6389 13.669 4.66644V4.66644Z" fill="#464646"/>
<path d="M19.3589 8.71631C18.6928 9.12202 17.9358 9.33484 17.1655 9.33298C18.7246 9.33518 20.2191 9.98559 21.3216 11.1416C22.424 12.2976 23.0442 13.8648 23.0463 15.4996C23.0463 15.6323 23.0966 15.7594 23.186 15.8532C23.2754 15.947 23.3967 15.9996 23.5231 15.9996C23.6496 15.9996 23.7709 15.947 23.8603 15.8532C23.9497 15.7594 24 15.6323 24 15.4996C23.9956 14.0032 23.5461 12.5454 22.7142 11.3295C21.8823 10.1136 20.7094 9.2001 19.3589 8.71631V8.71631Z" fill="#464646"/>
<path d="M17.1655 8.33301C16.4194 8.33497 15.6786 8.46444 14.9722 8.71634C15.639 9.12008 16.3955 9.33262 17.1655 9.33262C17.9356 9.33262 18.6921 9.12008 19.3589 8.71634C18.6525 8.46444 17.9117 8.33497 17.1655 8.33301V8.33301Z" fill="#464646"/>
<path d="M12.0161 10.833C12.2232 11.098 12.4143 11.3763 12.5883 11.6663C13.1351 10.9418 13.8306 10.3558 14.6231 9.95182C15.4156 9.54787 16.2846 9.33635 17.1658 9.33297C16.3955 9.33484 15.6385 9.12202 14.9724 8.71631C13.8253 9.13427 12.805 9.86483 12.0161 10.833V10.833Z" fill="#464646"/>
<path d="M11.5869 11.3747C11.8658 11.5371 12.118 11.7453 12.3339 11.9914C12.4134 11.8747 12.5088 11.7664 12.5882 11.6497C12.4142 11.3597 12.2231 11.0814 12.0161 10.8164C11.873 11.0081 11.7141 11.1831 11.5869 11.3747Z" fill="#464646"/>
</g>
<defs>
<clipPath id="clip0_2325_63">
<rect width="24" height="16" fill="white"/>
</clipPath>
</defs>
</svg>
