<svg width="9" height="15" viewBox="0 0 9 15" fill="none" xmlns="http://www.w3.org/2000/svg">
<path fill-rule="evenodd" clip-rule="evenodd" d="M4.49973 5.99609C3.93945 5.99609 3.46416 5.53743 3.46416 4.96006C3.46416 4.39978 3.92236 3.9245 4.49973 3.9245C5.06047 3.9245 5.53576 4.38269 5.53576 4.96006C5.53576 5.53743 5.06047 5.99609 4.49973 5.99609ZM4.49973 3.16016C3.51498 3.16016 2.7002 3.9754 2.7002 4.96016C2.7002 5.94538 3.51498 6.76062 4.49973 6.76062C5.48495 6.76062 6.29973 5.94538 6.29973 4.96016C6.29973 3.9754 5.48495 3.16016 4.49973 3.16016Z" fill="#FF6C5E"/>
<path fill-rule="evenodd" clip-rule="evenodd" d="M4.49975 13.0946L1.18843 6.67566C0.916837 6.1491 0.780579 5.57173 0.780579 4.96065C0.780579 2.90568 2.46233 1.22485 4.51684 1.22485C6.57134 1.22485 8.25263 2.90568 8.25263 4.96065C8.25263 5.5551 8.11684 6.13247 7.84524 6.65857L4.49975 13.0946ZM9 4.96068C9 2.48123 6.97921 0.460449 4.49977 0.460449C2.02078 0.460449 0 2.48123 0 4.96068C0 5.67384 0.169515 6.4041 0.509007 7.03227L4.16028 14.1136C4.22818 14.2494 4.36397 14.3173 4.49977 14.3173C4.63557 14.3173 4.77182 14.2323 4.83926 14.1136L6.67344 10.5729L8.50762 7.03227C8.83002 6.38701 9 5.67384 9 4.96068Z" fill="#FF6C5E"/>
</svg>
